<?xml version="1.0" encoding="UTF-8" standalone="no"?>
<!DOCTYPE svg PUBLIC "-//W3C//DTD SVG 1.1//EN" "http://www.w3.org/Graphics/SVG/1.1/DTD/svg11.dtd">
<svg width="100%" height="100%" viewBox="0 0 1167 1167" version="1.1" xmlns="http://www.w3.org/2000/svg" xmlns:xlink="http://www.w3.org/1999/xlink" xml:space="preserve" xmlns:serif="http://www.serif.com/" style="fill-rule:evenodd;clip-rule:evenodd;stroke-linecap:round;stroke-linejoin:round;stroke-miterlimit:1.5;">
    <g transform="matrix(1,0,0,1,0,-3945)">
        <g id="Trackstar-Serato" serif:id="Trackstar Serato" transform="matrix(1,0,0,1,-2696.77,3048.55)">
            <rect x="2696.77" y="896.527" width="1166.21" height="1166.21" style="fill:none;"/>
            <g transform="matrix(6.12323e-17,1,-1,6.12323e-17,5450.95,578.377)">
                <path d="M901.257,1650L1022.83,2024.17L1416.26,2024.17L1097.97,2255.42L1219.55,2629.6L901.257,2398.35L582.967,2629.6L704.543,2255.42L386.252,2024.17L779.681,2024.17L901.257,1650Z" style="fill:none;"/>
                <clipPath id="_clip1">
                    <path d="M901.257,1650L1022.83,2024.17L1416.26,2024.17L1097.97,2255.42L1219.55,2629.6L901.257,2398.35L582.967,2629.6L704.543,2255.42L386.252,2024.17L779.681,2024.17L901.257,1650Z"/>
                </clipPath>
                <g clip-path="url(#_clip1)">
                    <g transform="matrix(6.12323e-17,-1,1,6.12323e-17,-1370.81,3582.56)">
                        <g transform="matrix(1.10111,0,0,1.12497,-154.89,-270.794)">
                            <rect x="913.763" y="1744.04" width="1058" height="1019.23"/>
                        </g>
                        <g transform="matrix(1,0,0,-1,0,4554.92)">
                            <path d="M990.196,1847.38L990.196,2707.55L1145.32,2331.62L1146.84,2331.66C1146.08,2372.05 1139.89,2714.17 1148.44,2713.54C1257.39,2705.51 1312.59,2391.1 1321.44,2335.99L1322.42,2336.01C1320.51,2391.89 1310.05,2713.57 1322.71,2713.54C1408.47,2713.35 1488.16,2407.23 1504.51,2340.52L1507.07,2340.58C1504.62,2406.71 1494.22,2706.59 1507.56,2707.55C1586.94,2713.23 1656.26,2419.04 1672.49,2344.68L1675.49,2344.75C1673.01,2419.28 1663.95,2713.84 1676.07,2713.54C1773.44,2711.16 1834.58,2429.61 1850.08,2349.08L1853.99,2349.17L1853.99,2713.54L1971.77,2278.2L1853.99,1841.38L1853.99,2204.66L1849.86,2204.68C1833.99,2122.64 1772.97,1843.75 1676.07,1841.38C1664.2,1841.1 1672.65,2123.98 1675.33,2205.44L1671.44,2205.46C1653.44,2124.08 1585.34,1841.81 1507.56,1847.38C1494.71,1848.3 1503.89,2126.68 1506.78,2206.17L1502.47,2206.19C1482.35,2125.8 1405.34,1841.57 1322.71,1841.38C1310.77,1841.36 1319.4,2127.64 1322.02,2206.97L1319.45,2206.98C1306.07,2128.72 1251.14,1848.96 1148.44,1841.38C1140.59,1840.81 1145.17,2129.41 1146.55,2207.74L1138.91,2207.77L990.196,1847.38Z" style="fill:rgb(12,87,208);"/>
                        </g>
                        <g transform="matrix(1,0,0,-1,0,4554.92)">
                            <path d="M990.196,2039.46L990.196,2501.66L1145.32,2331.62L1146.84,2331.66C1146.08,2372.05 1147.19,2722.02 1148.44,2713.54C1203.61,2337.76 1312.59,2391.1 1321.44,2335.99L1322.42,2336.01C1320.51,2391.89 1321.83,2726.16 1322.71,2713.54C1356.28,2230.17 1488.16,2407.23 1504.51,2340.52L1507.07,2340.58C1504.62,2406.71 1500.62,2718.97 1507.56,2707.55C1712.51,2370.4 1656.26,2419.04 1672.49,2344.68L1675.49,2344.75C1673.01,2419.28 1673.46,2725.38 1676.07,2713.54C1750.5,2375.46 1797.77,2412.7 1850.08,2349.08L1853.99,2349.17L1853.99,2526.62L1971.77,2278.2L1853.99,2042.75C1853.99,2042.75 1854.67,2177.68 1853.99,2204.66C1853.95,2206.04 1849.86,2204.68 1849.86,2204.68C1833.99,2122.64 1759.5,2221.99 1676.07,1841.38C1673.53,1829.78 1672.65,2123.98 1675.33,2205.44L1671.44,2205.46C1653.44,2124.08 1659.16,2098.4 1507.56,1847.38C1500.9,1836.35 1503.89,2126.68 1506.78,2206.17L1502.47,2206.19C1482.35,2125.8 1354.04,2315.97 1322.71,1841.38C1321.92,1829.47 1319.4,2127.64 1322.02,2206.97L1319.45,2206.98C1269.98,2108.35 1222.27,2229.84 1148.44,1841.38C1146.97,1833.65 1145.17,2129.41 1146.55,2207.74L1138.91,2207.77L990.196,2039.46Z" style="fill:rgb(2,210,109);"/>
                        </g>
                        <g transform="matrix(1,1.0398e-16,-1.0398e-16,-0.150942,3.3988e-13,2621.23)">
                            <path d="M990.196,2039.46L990.196,2501.66L1145.32,2331.62L1146.84,2331.66C1146.08,2372.05 1147.19,2722.02 1148.44,2713.54C1203.61,2337.76 1312.59,2391.1 1321.44,2335.99L1322.42,2336.01C1320.51,2391.89 1321.83,2726.16 1322.71,2713.54C1356.28,2230.17 1488.16,2407.23 1504.51,2340.52L1507.07,2340.58C1504.62,2406.71 1500.62,2718.97 1507.56,2707.55C1712.51,2370.4 1656.26,2419.04 1672.49,2344.68L1675.49,2344.75C1673.01,2419.28 1673.46,2725.38 1676.07,2713.54C1750.5,2375.46 1797.77,2412.7 1850.08,2349.08L1853.99,2349.17L1853.99,2526.62L1971.77,2278.2L1853.99,2042.75C1853.99,2042.75 1854.67,2177.68 1853.99,2204.66C1853.95,2206.04 1849.86,2204.68 1849.86,2204.68C1833.99,2122.64 1759.5,2221.99 1676.07,1841.38C1673.53,1829.78 1672.65,2123.98 1675.33,2205.44L1671.44,2205.46C1653.44,2124.08 1659.16,2098.4 1507.56,1847.38C1500.9,1836.35 1503.89,2126.68 1506.78,2206.17L1502.47,2206.19C1482.35,2125.8 1354.04,2315.97 1322.71,1841.38C1321.92,1829.47 1319.4,2127.64 1322.02,2206.97L1319.45,2206.98C1269.98,2108.35 1222.27,2229.84 1148.44,1841.38C1146.97,1833.65 1145.17,2129.41 1146.55,2207.74L1138.91,2207.77L990.196,2039.46Z" style="fill:white;"/>
                        </g>
                    </g>
                </g>
                <path d="M901.257,1650L1022.83,2024.17L1416.26,2024.17L1097.97,2255.42L1219.55,2629.6L901.257,2398.35L582.967,2629.6L704.543,2255.42L386.252,2024.17L779.681,2024.17L901.257,1650Z" style="fill:none;stroke:black;stroke-width:25px;"/>
            </g>
            <g transform="matrix(3.78348,0,0,3.78348,3333.82,1515.36)">
                <path d="M67.506,6.771C33.963,6.77 6.77,33.961 6.769,67.504C6.769,101.047 33.96,128.24 67.503,128.241C101.045,128.242 128.237,101.053 128.24,67.511C128.241,33.967 101.05,6.773 67.506,6.771Z" style="fill:white;fill-rule:nonzero;"/>
                <path d="M67.506,0.999C30.776,0.998 0.999,30.774 0.998,67.504C0.997,104.235 30.772,134.012 67.503,134.013C104.232,134.014 134.008,104.241 134.011,67.512C134.013,30.78 104.238,1.002 67.506,0.999" style="fill:rgb(0,104,169);fill-rule:nonzero;"/>
                <path d="M116.826,76.13C114.992,76.13 113.504,74.646 113.5,72.811L113.5,62.307C113.467,60.848 114.373,59.533 115.748,59.043C117.487,58.455 119.374,59.388 119.963,61.127C120.079,61.47 120.138,61.83 120.138,62.191L120.138,72.811C120.139,74.642 118.657,76.127 116.826,76.13" style="fill:white;fill-rule:nonzero;"/>
                <path d="M105.664,87.09C105.656,89.117 104.006,90.753 101.98,90.745C101.439,90.743 100.905,90.621 100.417,90.388C99.151,89.798 98.351,88.516 98.376,87.119L98.376,76.173C98.361,73.89 96.497,72.051 94.214,72.066C91.946,72.081 90.114,73.919 90.106,76.187L90.106,102.482C90.129,104.211 89.046,105.761 87.415,106.335C85.276,107.1 82.922,105.986 82.157,103.846C82.02,103.463 81.941,103.062 81.922,102.655L81.914,102.467L81.914,94.464C81.81,91.937 79.676,89.972 77.148,90.077C76.882,90.088 76.617,90.122 76.357,90.179C74.225,90.691 72.736,92.616 72.776,94.807L72.776,119.112C72.823,121.645 71.091,123.866 68.622,124.437C65.792,125.035 63.012,123.226 62.414,120.395C62.34,120.046 62.303,119.691 62.301,119.335L62.301,94.623C62.287,92.097 60.227,90.061 57.701,90.075C55.242,90.089 53.235,92.044 53.155,94.501L53.155,102.467L53.149,102.619C53.068,104.879 51.171,106.645 48.911,106.564C46.726,106.486 44.987,104.705 44.963,102.519L44.963,76.16C44.937,73.873 43.063,72.04 40.776,72.065C40.533,72.068 40.291,72.092 40.052,72.137C38.056,72.573 36.649,74.361 36.693,76.402L36.693,87.007C36.742,89.022 35.149,90.694 33.135,90.743C31.121,90.793 29.448,89.199 29.399,87.185C29.398,87.153 29.398,87.122 29.398,87.09L29.398,48.009C29.347,45.994 30.938,44.32 32.953,44.269C34.967,44.218 36.641,45.81 36.692,47.824C36.693,47.856 36.693,47.888 36.693,47.92L36.693,58.607C36.649,60.649 38.056,62.437 40.052,62.872C42.298,63.298 44.465,61.822 44.891,59.575C44.936,59.336 44.96,59.093 44.963,58.85L44.963,32.496C44.933,30.93 45.829,29.494 47.248,28.832C49.305,27.851 51.768,28.723 52.75,30.78C52.99,31.284 53.126,31.832 53.149,32.391L53.155,32.543L53.155,40.509C53.237,43.034 55.351,45.014 57.876,44.932C60.333,44.852 62.287,42.844 62.301,40.386L62.301,15.654C62.266,13.602 63.468,11.73 65.348,10.907C68.006,9.717 71.126,10.908 72.316,13.566C72.617,14.239 72.773,14.967 72.776,15.704L72.776,40.204C72.736,42.395 74.226,44.319 76.357,44.83C78.829,45.371 81.271,43.806 81.812,41.334C81.87,41.072 81.904,40.806 81.914,40.538L81.914,32.542L81.922,32.355C82.029,30.085 83.955,28.332 86.224,28.439C86.631,28.458 87.032,28.537 87.415,28.674C89.046,29.249 90.129,30.799 90.106,32.527L90.106,58.815C90.11,61.099 91.965,62.947 94.248,62.943C96.518,62.939 98.36,61.106 98.376,58.836L98.376,47.891C98.351,46.493 99.151,45.212 100.417,44.621C102.247,43.75 104.436,44.527 105.308,46.357C105.54,46.845 105.662,47.379 105.664,47.92L105.664,87.09Z" style="fill:white;fill-rule:nonzero;"/>
                <path d="M21.561,72.811C21.561,74.646 20.073,76.132 18.239,76.132C18.035,76.132 17.833,76.113 17.633,76.076C16.026,75.731 14.889,74.293 14.925,72.65L14.925,62.353C14.889,60.709 16.026,59.272 17.633,58.927C19.437,58.592 21.171,59.783 21.506,61.587C21.543,61.787 21.561,61.989 21.561,62.191L21.561,72.811Z" style="fill:white;fill-rule:nonzero;"/>
                <path d="M67.506,61.835C64.375,61.833 61.835,64.371 61.833,67.502C61.832,70.634 64.369,73.174 67.501,73.175C70.632,73.177 73.171,70.641 73.174,67.51C73.172,64.379 70.637,61.841 67.506,61.835" style="fill:rgb(0,104,169);fill-rule:nonzero;"/>
            </g>
        </g>
    </g>
</svg>
