<?xml version="1.0" encoding="UTF-8" standalone="no"?>
<!DOCTYPE svg PUBLIC "-//W3C//DTD SVG 1.1//EN" "http://www.w3.org/Graphics/SVG/1.1/DTD/svg11.dtd">
<svg width="100%" height="100%" viewBox="0 0 1168 1167" version="1.1" xmlns="http://www.w3.org/2000/svg" xmlns:xlink="http://www.w3.org/1999/xlink" xml:space="preserve" xmlns:serif="http://www.serif.com/" style="fill-rule:evenodd;clip-rule:evenodd;stroke-linecap:round;stroke-linejoin:round;stroke-miterlimit:1.5;">
    <g transform="matrix(1,0,0,1,-1308,-3938)">
        <g id="Trackstar-VirtualDJ" serif:id="Trackstar VirtualDJ" transform="matrix(1,0,0,1,-1387.78,3042.05)">
            <rect x="2696.77" y="896.527" width="1166.21" height="1166.21" style="fill:none;"/>
            <g transform="matrix(6.12323e-17,1,-1,6.12323e-17,5450.95,578.377)">
                <path d="M901.257,1650L1022.83,2024.17L1416.26,2024.17L1097.97,2255.42L1219.55,2629.6L901.257,2398.35L582.967,2629.6L704.543,2255.42L386.252,2024.17L779.681,2024.17L901.257,1650Z" style="fill:none;"/>
                <clipPath id="_clip1">
                    <path d="M901.257,1650L1022.83,2024.17L1416.26,2024.17L1097.97,2255.42L1219.55,2629.6L901.257,2398.35L582.967,2629.6L704.543,2255.42L386.252,2024.17L779.681,2024.17L901.257,1650Z"/>
                </clipPath>
                <g clip-path="url(#_clip1)">
                    <g transform="matrix(6.12323e-17,-1,1,6.12323e-17,-1370.81,3582.56)">
                        <g transform="matrix(1.10111,0,0,1.12497,-154.89,-270.794)">
                            <rect x="913.763" y="1744.04" width="1058" height="1019.23"/>
                        </g>
                        <g transform="matrix(1,0,0,-1,0,4554.92)">
                            <path d="M990.196,1847.38L990.196,2707.55L1145.32,2331.62L1146.84,2331.66C1146.08,2372.05 1139.89,2714.17 1148.44,2713.54C1257.39,2705.51 1312.59,2391.1 1321.44,2335.99L1322.42,2336.01C1320.51,2391.89 1310.05,2713.57 1322.71,2713.54C1408.47,2713.35 1488.16,2407.23 1504.51,2340.52L1507.07,2340.58C1504.62,2406.71 1494.22,2706.59 1507.56,2707.55C1586.94,2713.23 1656.26,2419.04 1672.49,2344.68L1675.49,2344.75C1673.01,2419.28 1663.95,2713.84 1676.07,2713.54C1773.44,2711.16 1834.58,2429.61 1850.08,2349.08L1853.99,2349.17L1853.99,2713.54L1971.77,2278.2L1853.99,1841.38L1853.99,2204.66L1849.86,2204.68C1833.99,2122.64 1772.97,1843.75 1676.07,1841.38C1664.2,1841.1 1672.65,2123.98 1675.33,2205.44L1671.44,2205.46C1653.44,2124.08 1585.34,1841.81 1507.56,1847.38C1494.71,1848.3 1503.89,2126.68 1506.78,2206.17L1502.47,2206.19C1482.35,2125.8 1405.34,1841.57 1322.71,1841.38C1310.77,1841.36 1319.4,2127.64 1322.02,2206.97L1319.45,2206.98C1306.07,2128.72 1251.14,1848.96 1148.44,1841.38C1140.59,1840.81 1145.17,2129.41 1146.55,2207.74L1138.91,2207.77L990.196,1847.38Z" style="fill:rgb(12,87,208);"/>
                        </g>
                        <g transform="matrix(1,0,0,-1,0,4554.92)">
                            <path d="M990.196,2039.46L990.196,2501.66L1145.32,2331.62L1146.84,2331.66C1146.08,2372.05 1147.19,2722.02 1148.44,2713.54C1203.61,2337.76 1312.59,2391.1 1321.44,2335.99L1322.42,2336.01C1320.51,2391.89 1321.83,2726.16 1322.71,2713.54C1356.28,2230.17 1488.16,2407.23 1504.51,2340.52L1507.07,2340.58C1504.62,2406.71 1500.62,2718.97 1507.56,2707.55C1712.51,2370.4 1656.26,2419.04 1672.49,2344.68L1675.49,2344.75C1673.01,2419.28 1673.46,2725.38 1676.07,2713.54C1750.5,2375.46 1797.77,2412.7 1850.08,2349.08L1853.99,2349.17L1853.99,2526.62L1971.77,2278.2L1853.99,2042.75C1853.99,2042.75 1854.67,2177.68 1853.99,2204.66C1853.95,2206.04 1849.86,2204.68 1849.86,2204.68C1833.99,2122.64 1759.5,2221.99 1676.07,1841.38C1673.53,1829.78 1672.65,2123.98 1675.33,2205.44L1671.44,2205.46C1653.44,2124.08 1659.16,2098.4 1507.56,1847.38C1500.9,1836.35 1503.89,2126.68 1506.78,2206.17L1502.47,2206.19C1482.35,2125.8 1354.04,2315.97 1322.71,1841.38C1321.92,1829.47 1319.4,2127.64 1322.02,2206.97L1319.45,2206.98C1269.98,2108.35 1222.27,2229.84 1148.44,1841.38C1146.97,1833.65 1145.17,2129.41 1146.55,2207.74L1138.91,2207.77L990.196,2039.46Z" style="fill:rgb(2,210,109);"/>
                        </g>
                        <g transform="matrix(1,1.0398e-16,-1.0398e-16,-0.150942,3.3988e-13,2621.23)">
                            <path d="M990.196,2039.46L990.196,2501.66L1145.32,2331.62L1146.84,2331.66C1146.08,2372.05 1147.19,2722.02 1148.44,2713.54C1203.61,2337.76 1312.59,2391.1 1321.44,2335.99L1322.42,2336.01C1320.51,2391.89 1321.83,2726.16 1322.71,2713.54C1356.28,2230.17 1488.16,2407.23 1504.51,2340.52L1507.07,2340.58C1504.62,2406.71 1500.62,2718.97 1507.56,2707.55C1712.51,2370.4 1656.26,2419.04 1672.49,2344.68L1675.49,2344.75C1673.01,2419.28 1673.46,2725.38 1676.07,2713.54C1750.5,2375.46 1797.77,2412.7 1850.08,2349.08L1853.99,2349.17L1853.99,2526.62L1971.77,2278.2L1853.99,2042.75C1853.99,2042.75 1854.67,2177.68 1853.99,2204.66C1853.95,2206.04 1849.86,2204.68 1849.86,2204.68C1833.99,2122.64 1759.5,2221.99 1676.07,1841.38C1673.53,1829.78 1672.65,2123.98 1675.33,2205.44L1671.44,2205.46C1653.44,2124.08 1659.16,2098.4 1507.56,1847.38C1500.9,1836.35 1503.89,2126.68 1506.78,2206.17L1502.47,2206.19C1482.35,2125.8 1354.04,2315.97 1322.71,1841.38C1321.92,1829.47 1319.4,2127.64 1322.02,2206.97L1319.45,2206.98C1269.98,2108.35 1222.27,2229.84 1148.44,1841.38C1146.97,1833.65 1145.17,2129.41 1146.55,2207.74L1138.91,2207.77L990.196,2039.46Z" style="fill:white;"/>
                        </g>
                    </g>
                </g>
                <path d="M901.257,1650L1022.83,2024.17L1416.26,2024.17L1097.97,2255.42L1219.55,2629.6L901.257,2398.35L582.967,2629.6L704.543,2255.42L386.252,2024.17L779.681,2024.17L901.257,1650Z" style="fill:none;stroke:black;stroke-width:25px;"/>
            </g>
            <g id="g3234" transform="matrix(1.19013,0,0,1.19013,3162.77,1189.65)">
                <path id="path3250" d="M113.896,686.969L113.896,236.969L255.084,237.056C332.737,237.104 395.596,237.308 394.771,237.51C391.959,238.198 310.945,254.839 216.646,274.098C164.878,284.672 120.918,293.665 118.959,294.083L115.396,294.843L115.396,628.875L147.084,635.472C164.512,639.101 212.69,648.984 254.146,657.435C336.224,674.167 394.34,686.146 395.521,686.577C395.934,686.728 332.737,686.877 255.084,686.91L113.896,686.969ZM398.896,686.969L398.896,657.691L400.66,658.133C404.567,659.114 425.131,653.716 439.584,647.916C492.365,626.734 533.328,583.539 551.116,530.307C556.703,513.588 559.221,501.129 561.273,480.052C563.401,458.188 562.431,443.142 557.52,421.844C543.349,360.393 492.398,305.23 430.763,284.609C422.324,281.785 406.056,278.219 401.615,278.219L398.896,278.219L398.896,236.969L563.896,236.969L563.896,686.969L398.896,686.969ZM240.653,573.652C214.294,571.116 190.722,557.828 173.583,535.844C153.815,510.488 145.418,476.587 151.018,444.739C155.382,419.918 165.581,399.731 182.117,383.185C212.635,352.65 255.816,345.52 293.075,364.865C301.902,369.449 308.662,374.612 317.568,383.575C333.082,399.186 342.388,417.13 347.721,441.719C349.512,449.977 349.75,452.659 349.715,464.219C349.682,474.862 349.358,478.816 348.002,485.129C344.634,500.796 339.487,514.263 332.651,525.295C315.476,553.008 288.558,570.539 258.283,573.73C250.735,574.526 249.689,574.521 240.653,573.652L240.653,573.652ZM261.795,544.609C287.293,537.724 307.6,517.092 315.969,489.566C320.653,474.159 320.641,454.472 315.937,438.053C314.107,431.665 308.287,418.844 307.218,418.844C306.914,418.844 300.291,424.24 292.501,430.834L278.338,442.824L279.257,445.459C282.473,454.683 282.652,470.194 279.647,479.219C274.901,493.469 264.828,504.191 252.032,508.613C244.871,511.087 232.511,511.035 226.021,508.504C215.339,504.337 206.998,496.388 201.589,485.221C198.877,479.622 197.959,476.27 197.199,469.186C195.141,449.994 204.008,431.436 219.646,422.204C226.21,418.329 232.129,416.712 239.896,416.672C246.427,416.638 252.997,418.281 259.609,421.601L262.447,423.026L269.692,416.435C280.121,406.947 289.396,398.028 289.396,397.486C289.396,396.634 277.577,389.207 272.762,387.034C261.324,381.872 245.631,379.708 233.455,381.613C206.621,385.813 183.463,406.113 173.848,433.863C170.122,444.615 169.026,451.504 169.077,463.844C169.142,479.821 171.58,490.4 178.301,503.868C189.176,525.663 207.727,540.359 230.981,545.602C237.945,547.172 254.25,546.647 261.795,544.609L261.795,544.609ZM246.393,485.833C250.547,483.881 255.297,478.665 257.699,473.417C263.224,461.349 256.812,445.556 244.508,440.926C227.538,434.541 211.435,452.238 216.95,471.21C220.776,484.371 234.744,491.309 246.393,485.833Z" style="fill:none;fill-rule:nonzero;"/>
                <path id="path3238" d="M379.771,682.788C365.938,679.792 334.491,673.326 211.849,648.259C166.35,638.96 121.394,629.624 117.953,628.76L116.143,628.306L116.332,461.7L116.521,295.094L188.896,280.32C228.703,272.194 291.14,259.396 327.646,251.881C364.153,244.365 394.949,238.066 396.084,237.882L398.146,237.549L398.146,422.173L402.084,424.697C410.328,429.983 418.047,440.718 421.557,451.782C423.678,458.466 424.181,471.922 422.597,479.579C420.137,491.467 412.343,503.756 403.234,510.11L398.521,513.398L398.14,686.219L396.455,686.128C395.529,686.077 388.021,684.574 379.771,682.788L379.771,682.788ZM265.351,573.308C303.549,566.062 334.452,536.588 345.645,496.726C349.521,482.924 350.424,476.813 350.449,464.219C350.503,437.107 341.458,411.305 324.53,390.279C298.633,358.115 256.096,345.521 218.721,358.951C159.038,380.397 131.236,455.863 160.736,516.344C173.152,541.798 196.027,562.326 220.771,570.218C224.752,571.488 233.524,573.475 237.271,573.956C243.477,574.752 259.713,574.378 265.351,573.308ZM238.396,545.919C199.827,543.035 169.504,506.9 169.411,463.711C169.321,421.968 198.096,386.518 235.9,381.798C242.885,380.925 255.102,381.823 261.871,383.706C270.72,386.168 280.691,391.032 285.891,395.424L288.761,397.848L282.866,403.471C279.625,406.564 273.704,412.06 269.71,415.685L262.448,422.276L257.36,420.13C248.911,416.567 245.827,415.981 237.825,416.421C226.425,417.047 218.326,420.686 210.474,428.71C200.942,438.45 196.396,450.078 196.396,464.722C196.396,472.606 197.828,478.431 201.802,486.719C204.215,491.751 206.061,494.285 210.565,498.744C219.796,507.885 230.535,512.186 241.673,511.202C259.576,509.62 273.596,498.194 279.906,480.041C281.936,474.202 282.151,472.674 282.186,463.844C282.221,454.913 281.574,450.344 279.37,443.969C279.038,443.008 293.017,430.496 305.213,420.84L307.428,419.086L310.825,426.257C317.143,439.595 319.873,456.227 318.515,473.11C315.82,506.622 291.842,536.437 261.472,544.038C253.327,546.077 247.192,546.577 238.396,545.919ZM232.501,486.609C226.446,484.866 221.491,480.215 218.238,473.219C213.137,462.248 218.16,447.46 228.786,442.165C235.443,438.848 242.948,439.597 249.485,444.232C261.258,452.58 262.453,470.274 251.952,480.775C245.993,486.734 239.599,488.651 232.501,486.609Z" style="fill:rgb(253,0,0);fill-rule:nonzero;"/>
                <path id="path3236" d="M399.459,657.302C399.149,656.981 398.896,624.557 398.896,585.247L398.896,513.775L403.21,510.846C424.143,496.63 430.738,464.524 417.55,441.037C413.054,433.03 406.733,426.255 400.959,423.253L398.896,422.181L398.896,278.201L402.084,278.649C421.885,281.429 437.713,286.451 455.896,295.724C502.894,319.691 538.718,361.945 554.243,411.719C562.178,437.161 563.601,462.67 558.929,495.719C550.052,558.51 510.563,612.933 453.435,641.108C441.453,647.017 432.859,650.331 419.146,654.33C409.897,657.027 400.555,658.438 399.459,657.302Z" style="fill:rgb(31,31,31);fill-rule:nonzero;"/>
                <g transform="matrix(1,0,0,1,42.0406,51.5937)">
                    <path d="M198.612,522.058C172.253,519.522 148.682,506.235 131.543,484.25C111.774,458.894 103.378,424.993 108.977,393.145C113.341,368.324 123.54,348.137 140.076,331.592C170.595,301.056 213.775,293.926 251.034,313.272C259.862,317.855 266.621,323.018 275.528,331.981C291.041,347.592 300.347,365.536 305.68,390.125C307.471,398.383 307.709,401.065 307.674,412.625C307.642,423.268 307.318,427.223 305.961,433.535C302.593,449.203 297.447,462.669 290.61,473.701C273.436,501.414 246.518,518.946 216.243,522.137C208.694,522.932 207.648,522.928 198.612,522.058ZM219.755,493.016C245.253,486.131 265.559,465.499 273.928,437.972C278.613,422.566 278.6,402.878 273.897,386.459C272.066,380.071 266.247,367.25 265.177,367.25C264.873,367.25 258.25,372.646 250.461,379.241L236.298,391.231L237.216,393.866C240.432,403.089 240.611,418.601 237.606,427.625C232.86,441.876 222.787,452.597 209.991,457.019C202.83,459.493 190.471,459.442 183.981,456.91C173.299,452.743 164.957,444.794 159.548,433.628C156.836,428.029 155.918,424.676 155.158,417.592C153.1,398.4 161.967,379.842 177.606,370.61C184.169,366.735 190.089,365.118 197.856,365.078C204.387,365.045 210.957,366.687 217.569,370.007L220.406,371.432L227.651,364.841C238.08,355.353 247.356,346.434 247.356,345.893C247.356,345.04 235.537,337.613 230.722,335.44C219.283,330.278 203.59,328.114 191.414,330.019C164.581,334.219 141.422,354.519 131.807,382.269C128.082,393.021 126.985,399.91 127.036,412.25C127.101,428.227 129.54,438.807 136.26,452.275C147.136,474.069 165.687,488.765 188.94,494.008C195.905,495.578 212.209,495.053 219.755,493.016ZM204.352,434.24C208.506,432.287 213.256,427.071 215.658,421.823C221.183,409.755 214.771,393.962 202.467,389.332C185.498,382.947 169.394,400.644 174.909,419.616C178.735,432.777 192.704,439.715 204.352,434.24Z" style="fill:white;"/>
                </g>
            </g>
        </g>
    </g>
</svg>
