<?xml version="1.0" encoding="UTF-8" standalone="no"?>
<!DOCTYPE svg PUBLIC "-//W3C//DTD SVG 1.1//EN" "http://www.w3.org/Graphics/SVG/1.1/DTD/svg11.dtd">
<svg width="100%" height="100%" viewBox="0 0 1167 1167" version="1.1" xmlns="http://www.w3.org/2000/svg" xmlns:xlink="http://www.w3.org/1999/xlink" xml:space="preserve" xmlns:serif="http://www.serif.com/" style="fill-rule:evenodd;clip-rule:evenodd;stroke-linecap:round;stroke-linejoin:round;stroke-miterlimit:1.5;">
    <g transform="matrix(1,0,0,1,-2588,-2679)">
        <g id="Trackstar-MIXXX" serif:id="Trackstar MIXXX" transform="matrix(1,0,0,1,-108.325,1782.72)">
            <rect x="2696.77" y="896.527" width="1166.21" height="1166.21" style="fill:none;"/>
            <g transform="matrix(6.12323e-17,1,-1,6.12323e-17,5450.95,578.377)">
                <path d="M901.257,1650L1022.83,2024.17L1416.26,2024.17L1097.97,2255.42L1219.55,2629.6L901.257,2398.35L582.967,2629.6L704.543,2255.42L386.252,2024.17L779.681,2024.17L901.257,1650Z" style="fill:none;"/>
                <clipPath id="_clip1">
                    <path d="M901.257,1650L1022.83,2024.17L1416.26,2024.17L1097.97,2255.42L1219.55,2629.6L901.257,2398.35L582.967,2629.6L704.543,2255.42L386.252,2024.17L779.681,2024.17L901.257,1650Z"/>
                </clipPath>
                <g clip-path="url(#_clip1)">
                    <g transform="matrix(6.12323e-17,-1,1,6.12323e-17,-1370.81,3582.56)">
                        <g transform="matrix(1.10111,0,0,1.12497,-154.89,-270.794)">
                            <rect x="913.763" y="1744.04" width="1058" height="1019.23"/>
                        </g>
                        <g transform="matrix(1,0,0,-1,0,4554.92)">
                            <path d="M990.196,1847.38L990.196,2707.55L1145.32,2331.62L1146.84,2331.66C1146.08,2372.05 1139.89,2714.17 1148.44,2713.54C1257.39,2705.51 1312.59,2391.1 1321.44,2335.99L1322.42,2336.01C1320.51,2391.89 1310.05,2713.57 1322.71,2713.54C1408.47,2713.35 1488.16,2407.23 1504.51,2340.52L1507.07,2340.58C1504.62,2406.71 1494.22,2706.59 1507.56,2707.55C1586.94,2713.23 1656.26,2419.04 1672.49,2344.68L1675.49,2344.75C1673.01,2419.28 1663.95,2713.84 1676.07,2713.54C1773.44,2711.16 1834.58,2429.61 1850.08,2349.08L1853.99,2349.17L1853.99,2713.54L1971.77,2278.2L1853.99,1841.38L1853.99,2204.66L1849.86,2204.68C1833.99,2122.64 1772.97,1843.75 1676.07,1841.38C1664.2,1841.1 1672.65,2123.98 1675.33,2205.44L1671.44,2205.46C1653.44,2124.08 1585.34,1841.81 1507.56,1847.38C1494.71,1848.3 1503.89,2126.68 1506.78,2206.17L1502.47,2206.19C1482.35,2125.8 1405.34,1841.57 1322.71,1841.38C1310.77,1841.36 1319.4,2127.64 1322.02,2206.97L1319.45,2206.98C1306.07,2128.72 1251.14,1848.96 1148.44,1841.38C1140.59,1840.81 1145.17,2129.41 1146.55,2207.74L1138.91,2207.77L990.196,1847.38Z" style="fill:rgb(12,87,208);"/>
                        </g>
                        <g transform="matrix(1,0,0,-1,0,4554.92)">
                            <path d="M990.196,2039.46L990.196,2501.66L1145.32,2331.62L1146.84,2331.66C1146.08,2372.05 1147.19,2722.02 1148.44,2713.54C1203.61,2337.76 1312.59,2391.1 1321.44,2335.99L1322.42,2336.01C1320.51,2391.89 1321.83,2726.16 1322.71,2713.54C1356.28,2230.17 1488.16,2407.23 1504.51,2340.52L1507.07,2340.58C1504.62,2406.71 1500.62,2718.97 1507.56,2707.55C1712.51,2370.4 1656.26,2419.04 1672.49,2344.68L1675.49,2344.75C1673.01,2419.28 1673.46,2725.38 1676.07,2713.54C1750.5,2375.46 1797.77,2412.7 1850.08,2349.08L1853.99,2349.17L1853.99,2526.62L1971.77,2278.2L1853.99,2042.75C1853.99,2042.75 1854.67,2177.68 1853.99,2204.66C1853.95,2206.04 1849.86,2204.68 1849.86,2204.68C1833.99,2122.64 1759.5,2221.99 1676.07,1841.38C1673.53,1829.78 1672.65,2123.98 1675.33,2205.44L1671.44,2205.46C1653.44,2124.08 1659.16,2098.4 1507.56,1847.38C1500.9,1836.35 1503.89,2126.68 1506.78,2206.17L1502.47,2206.19C1482.35,2125.8 1354.04,2315.97 1322.71,1841.38C1321.92,1829.47 1319.4,2127.64 1322.02,2206.97L1319.45,2206.98C1269.98,2108.35 1222.27,2229.84 1148.44,1841.38C1146.97,1833.65 1145.17,2129.41 1146.55,2207.74L1138.91,2207.77L990.196,2039.46Z" style="fill:rgb(2,210,109);"/>
                        </g>
                        <g transform="matrix(1,1.0398e-16,-1.0398e-16,-0.150942,3.3988e-13,2621.23)">
                            <path d="M990.196,2039.46L990.196,2501.66L1145.32,2331.62L1146.84,2331.66C1146.08,2372.05 1147.19,2722.02 1148.44,2713.54C1203.61,2337.76 1312.59,2391.1 1321.44,2335.99L1322.42,2336.01C1320.51,2391.89 1321.83,2726.16 1322.71,2713.54C1356.28,2230.17 1488.16,2407.23 1504.51,2340.52L1507.07,2340.58C1504.62,2406.71 1500.62,2718.97 1507.56,2707.55C1712.51,2370.4 1656.26,2419.04 1672.49,2344.68L1675.49,2344.75C1673.01,2419.28 1673.46,2725.38 1676.07,2713.54C1750.5,2375.46 1797.77,2412.7 1850.08,2349.08L1853.99,2349.17L1853.99,2526.62L1971.77,2278.2L1853.99,2042.75C1853.99,2042.75 1854.67,2177.68 1853.99,2204.66C1853.95,2206.04 1849.86,2204.68 1849.86,2204.68C1833.99,2122.64 1759.5,2221.99 1676.07,1841.38C1673.53,1829.78 1672.65,2123.98 1675.33,2205.44L1671.44,2205.46C1653.44,2124.08 1659.16,2098.4 1507.56,1847.38C1500.9,1836.35 1503.89,2126.68 1506.78,2206.17L1502.47,2206.19C1482.35,2125.8 1354.04,2315.97 1322.71,1841.38C1321.92,1829.47 1319.4,2127.64 1322.02,2206.97L1319.45,2206.98C1269.98,2108.35 1222.27,2229.84 1148.44,1841.38C1146.97,1833.65 1145.17,2129.41 1146.55,2207.74L1138.91,2207.77L990.196,2039.46Z" style="fill:white;"/>
                        </g>
                    </g>
                </g>
                <path d="M901.257,1650L1022.83,2024.17L1416.26,2024.17L1097.97,2255.42L1219.55,2629.6L901.257,2398.35L582.967,2629.6L704.543,2255.42L386.252,2024.17L779.681,2024.17L901.257,1650Z" style="fill:none;stroke:black;stroke-width:25px;"/>
            </g>
            <g transform="matrix(1.5066,0,0,1.5066,2238.18,1221.15)">
                <rect x="509.135" y="270.687" width="569.32" height="261.847" style="fill:none;"/>
                <clipPath id="_clip2">
                    <rect x="509.135" y="270.687" width="569.32" height="261.847"/>
                </clipPath>
                <g clip-path="url(#_clip2)">
                    <g>
                        <path d="M1061.51,285.202L904.048,514.87L834.407,514.87L991.897,285.202L1061.51,285.202Z" style="fill:url(#_Linear3);fill-rule:nonzero;"/>
                        <path d="M746.053,285.202L588.591,514.87L518.921,514.87L676.401,285.202L746.053,285.202Z" style="fill:url(#_Linear4);fill-rule:nonzero;"/>
                        <path d="M903.783,285.202L746.318,514.87L676.68,514.87L834.167,285.202L903.783,285.202Z" style="fill:url(#_Linear5);fill-rule:nonzero;"/>
                        <path d="M518.95,285.202L676.401,514.87L746.053,514.87L588.591,285.202L518.95,285.202Z" style="fill:url(#_Linear6);fill-rule:nonzero;"/>
                        <path d="M676.68,285.202L834.167,514.87L903.809,514.87L746.318,285.202L676.68,285.202Z" style="fill:url(#_Linear7);fill-rule:nonzero;"/>
                        <path d="M834.407,285.202L991.897,514.87L1061.54,514.87L904.048,285.202L834.407,285.202Z" style="fill:url(#_Linear8);fill-rule:nonzero;"/>
                        <path d="M518.95,285.202L592.181,392.016C616.272,392.392 639.987,393.135 663.315,394.189L588.594,285.202L518.95,285.202ZM676.68,285.202L755.534,400.18C781.264,402.399 806.293,405.012 830.526,408.023L746.318,285.202L676.68,285.202ZM904.048,285.202L834.407,285.202L929.005,423.122C958.114,428.526 985.529,434.549 1010.96,441.092L904.048,285.202ZM435.621,394.217C455.174,393.323 475.077,392.678 495.191,392.253L495.191,285.202L435.621,285.202L435.621,394.217ZM273.858,399.722L202.681,285.202L138.462,285.202L138.462,430.577C157.122,426.555 176.618,422.836 196.872,419.382L196.872,380.375L220.071,415.592C256.47,409.932 295.06,405.162 335.454,401.425L350.092,379.21L350.092,400.116C369.451,398.454 389.197,397.039 409.286,395.864L409.286,285.202L345.072,285.202L273.858,399.722Z" style="fill:url(#_Linear9);fill-rule:nonzero;"/>
                        <path d="M755.047,399.472L755.532,400.18C781.262,402.399 806.29,405.012 830.523,408.023L829.987,407.247C805.834,404.273 780.803,401.683 755.047,399.472ZM138.462,430.577C157.122,426.555 176.618,422.836 196.872,419.382L196.872,416.367C176.611,419.635 157.058,423.15 138.462,426.941L138.462,430.577ZM1010.43,440.309C985.186,433.722 957.799,427.642 928.371,422.204L929.005,423.122C958.114,428.526 985.529,434.549 1010.96,441.092L1010.43,440.309ZM591.619,391.191L592.181,392.016C616.272,392.392 639.987,393.135 663.315,394.189L662.799,393.441C639.487,392.369 615.736,391.619 591.619,391.191ZM435.621,394.217C455.174,393.323 475.077,392.678 495.191,392.253L495.191,391.176C475.069,391.529 455.192,392.088 435.621,392.89L435.621,394.217ZM220.071,415.592C256.47,409.932 295.06,405.162 335.454,401.425L336.771,399.423C295.215,402.977 255.586,407.546 218.386,413.032L220.071,415.592ZM350.089,400.116C369.449,398.454 389.194,397.039 409.283,395.864L409.283,394.384C389.187,395.467 369.43,396.768 350.089,398.304L350.089,400.116Z" style="fill:white;fill-rule:nonzero;"/>
                        <path d="M744.569,514.87L746.053,514.87L588.591,285.202L744.569,514.87Z" style="fill:url(#_Linear10);fill-rule:nonzero;"/>
                        <path d="M676.401,514.87L521.065,285.202L518.95,285.202L676.401,514.87Z" style="fill:url(#_Linear11);fill-rule:nonzero;"/>
                        <path d="M902.244,514.798L903.726,514.798L746.264,285.13L902.244,514.798Z" style="fill:url(#_Linear12);fill-rule:nonzero;"/>
                        <path d="M834.077,514.798L678.741,285.13L676.623,285.13L834.077,514.798Z" style="fill:url(#_Linear13);fill-rule:nonzero;"/>
                        <path d="M1059.99,514.798L1061.47,514.798L904.012,285.13L1059.99,514.798Z" style="fill:url(#_Linear14);fill-rule:nonzero;"/>
                        <path d="M991.825,514.798L836.487,285.13L834.371,285.13L991.825,514.798Z" style="fill:url(#_Linear15);fill-rule:nonzero;"/>
                    </g>
                </g>
            </g>
        </g>
    </g>
    <defs>
        <linearGradient id="_Linear3" x1="0" y1="0" x2="1" y2="0" gradientUnits="userSpaceOnUse" gradientTransform="matrix(-158.51,229.14,-229.14,-158.51,1027.67,284.826)"><stop offset="0" style="stop-color:rgb(57,181,74);stop-opacity:1"/><stop offset="0.48" style="stop-color:rgb(57,181,74);stop-opacity:1"/><stop offset="1" style="stop-color:rgb(27,117,188);stop-opacity:1"/></linearGradient>
        <linearGradient id="_Linear4" x1="0" y1="0" x2="1" y2="0" gradientUnits="userSpaceOnUse" gradientTransform="matrix(-158.517,229.151,-229.151,-158.517,712.2,284.815)"><stop offset="0" style="stop-color:rgb(56,31,31);stop-opacity:1"/><stop offset="0" style="stop-color:rgb(58,31,32);stop-opacity:1"/><stop offset="0.04" style="stop-color:rgb(91,41,38);stop-opacity:1"/><stop offset="0.08" style="stop-color:rgb(124,47,40);stop-opacity:1"/><stop offset="0.12" style="stop-color:rgb(155,48,41);stop-opacity:1"/><stop offset="0.16" style="stop-color:rgb(182,46,40);stop-opacity:1"/><stop offset="0.21" style="stop-color:rgb(204,41,39);stop-opacity:1"/><stop offset="0.27" style="stop-color:rgb(220,35,37);stop-opacity:1"/><stop offset="0.34" style="stop-color:rgb(232,31,37);stop-opacity:1"/><stop offset="0.48" style="stop-color:rgb(237,28,36);stop-opacity:1"/><stop offset="1" style="stop-color:rgb(247,147,30);stop-opacity:1"/></linearGradient>
        <linearGradient id="_Linear5" x1="0" y1="0" x2="1" y2="0" gradientUnits="userSpaceOnUse" gradientTransform="matrix(-158.51,229.139,-229.139,-158.51,869.942,284.823)"><stop offset="0" style="stop-color:rgb(19,14,30);stop-opacity:1"/><stop offset="0.02" style="stop-color:rgb(28,20,38);stop-opacity:1"/><stop offset="0.14" style="stop-color:rgb(68,35,73);stop-opacity:1"/><stop offset="0.26" style="stop-color:rgb(101,41,102);stop-opacity:1"/><stop offset="0.35" style="stop-color:rgb(124,40,122);stop-opacity:1"/><stop offset="0.43" style="stop-color:rgb(139,38,136);stop-opacity:1"/><stop offset="0.48" style="stop-color:rgb(145,39,143);stop-opacity:1"/><stop offset="1" style="stop-color:rgb(237,28,36);stop-opacity:1"/></linearGradient>
        <linearGradient id="_Linear6" x1="0" y1="0" x2="1" y2="0" gradientUnits="userSpaceOnUse" gradientTransform="matrix(1.47753e-14,241.298,-241.298,1.47753e-14,632.5,285.839)"><stop offset="0" style="stop-color:rgb(31,31,32);stop-opacity:1"/><stop offset="0.48" style="stop-color:rgb(31,31,32);stop-opacity:1"/><stop offset="0.86" style="stop-color:rgb(88,89,91);stop-opacity:1"/><stop offset="1" style="stop-color:rgb(165,168,170);stop-opacity:1"/></linearGradient>
        <linearGradient id="_Linear7" x1="0" y1="0" x2="1" y2="0" gradientUnits="userSpaceOnUse" gradientTransform="matrix(1.47753e-14,241.298,-241.298,1.47753e-14,790.243,285.839)"><stop offset="0" style="stop-color:rgb(31,31,32);stop-opacity:1"/><stop offset="0.48" style="stop-color:rgb(31,31,32);stop-opacity:1"/><stop offset="0.86" style="stop-color:rgb(88,89,91);stop-opacity:1"/><stop offset="1" style="stop-color:rgb(165,168,170);stop-opacity:1"/></linearGradient>
        <linearGradient id="_Linear8" x1="0" y1="0" x2="1" y2="0" gradientUnits="userSpaceOnUse" gradientTransform="matrix(1.47753e-14,241.298,-241.298,1.47753e-14,947.971,285.839)"><stop offset="0" style="stop-color:rgb(31,31,32);stop-opacity:1"/><stop offset="0.48" style="stop-color:rgb(31,31,32);stop-opacity:1"/><stop offset="0.86" style="stop-color:rgb(88,89,91);stop-opacity:1"/><stop offset="1" style="stop-color:rgb(165,168,170);stop-opacity:1"/></linearGradient>
        <linearGradient id="_Linear9" x1="0" y1="0" x2="1" y2="0" gradientUnits="userSpaceOnUse" gradientTransform="matrix(7.59984e-15,124.115,-124.115,7.59984e-15,574.71,254.051)"><stop offset="0" style="stop-color:rgb(130,132,134);stop-opacity:1"/><stop offset="0.38" style="stop-color:rgb(90,91,93);stop-opacity:1"/><stop offset="1" style="stop-color:rgb(209,211,212);stop-opacity:1"/></linearGradient>
        <linearGradient id="_Linear10" x1="0" y1="0" x2="1" y2="0" gradientUnits="userSpaceOnUse" gradientTransform="matrix(1.45746e-14,-238.021,238.021,1.45746e-14,667.322,514.871)"><stop offset="0" style="stop-color:white;stop-opacity:1"/><stop offset="1" style="stop-color:black;stop-opacity:1"/></linearGradient>
        <linearGradient id="_Linear11" x1="0" y1="0" x2="1" y2="0" gradientUnits="userSpaceOnUse" gradientTransform="matrix(1.41897e-14,-231.735,231.735,1.41897e-14,597.674,517.209)"><stop offset="0" style="stop-color:white;stop-opacity:1"/><stop offset="1" style="stop-color:black;stop-opacity:1"/></linearGradient>
        <linearGradient id="_Linear12" x1="0" y1="0" x2="1" y2="0" gradientUnits="userSpaceOnUse" gradientTransform="matrix(1.45746e-14,-238.021,238.021,1.45746e-14,824.994,514.798)"><stop offset="0" style="stop-color:white;stop-opacity:1"/><stop offset="1" style="stop-color:black;stop-opacity:1"/></linearGradient>
        <linearGradient id="_Linear13" x1="0" y1="0" x2="1" y2="0" gradientUnits="userSpaceOnUse" gradientTransform="matrix(1.41897e-14,-231.735,231.735,1.41897e-14,755.351,517.136)"><stop offset="0" style="stop-color:white;stop-opacity:1"/><stop offset="1" style="stop-color:black;stop-opacity:1"/></linearGradient>
        <linearGradient id="_Linear14" x1="0" y1="0" x2="1" y2="0" gradientUnits="userSpaceOnUse" gradientTransform="matrix(1.45746e-14,-238.021,238.021,1.45746e-14,982.742,514.798)"><stop offset="0" style="stop-color:white;stop-opacity:1"/><stop offset="1" style="stop-color:black;stop-opacity:1"/></linearGradient>
        <linearGradient id="_Linear15" x1="0" y1="0" x2="1" y2="0" gradientUnits="userSpaceOnUse" gradientTransform="matrix(1.41897e-14,-231.735,231.735,1.41897e-14,913.099,517.136)"><stop offset="0" style="stop-color:white;stop-opacity:1"/><stop offset="1" style="stop-color:black;stop-opacity:1"/></linearGradient>
    </defs>
</svg>
