<?xml version="1.0" encoding="UTF-8" standalone="no"?>
<!DOCTYPE svg PUBLIC "-//W3C//DTD SVG 1.1//EN" "http://www.w3.org/Graphics/SVG/1.1/DTD/svg11.dtd">
<svg width="100%" height="100%" viewBox="0 0 1167 1167" version="1.1" xmlns="http://www.w3.org/2000/svg" xmlns:xlink="http://www.w3.org/1999/xlink" xml:space="preserve" xmlns:serif="http://www.serif.com/" style="fill-rule:evenodd;clip-rule:evenodd;stroke-linecap:round;stroke-linejoin:round;stroke-miterlimit:1.5;">
    <g transform="matrix(1,0,0,1,0,-378)">
        <g id="Trackstar-RB" serif:id="Trackstar RB" transform="matrix(1,0,0,1,-2696.77,-518.19)">
            <rect x="2696.77" y="896.527" width="1166.21" height="1166.21" style="fill:none;"/>
            <g transform="matrix(6.12323e-17,1,-1,6.12323e-17,5450.95,578.377)">
                <path d="M901.257,1650L1022.83,2024.17L1416.26,2024.17L1097.97,2255.42L1219.55,2629.6L901.257,2398.35L582.967,2629.6L704.543,2255.42L386.252,2024.17L779.681,2024.17L901.257,1650Z" style="fill:none;"/>
                <clipPath id="_clip1">
                    <path d="M901.257,1650L1022.83,2024.17L1416.26,2024.17L1097.97,2255.42L1219.55,2629.6L901.257,2398.35L582.967,2629.6L704.543,2255.42L386.252,2024.17L779.681,2024.17L901.257,1650Z"/>
                </clipPath>
                <g clip-path="url(#_clip1)">
                    <g transform="matrix(6.12323e-17,-1,1,6.12323e-17,-1370.81,3582.56)">
                        <g transform="matrix(1.10111,0,0,1.12497,-154.89,-270.794)">
                            <rect x="913.763" y="1744.04" width="1058" height="1019.23"/>
                        </g>
                        <g transform="matrix(1,0,0,-1,0,4554.92)">
                            <path d="M990.196,1847.38L990.196,2707.55L1145.32,2331.62L1146.84,2331.66C1146.08,2372.05 1139.89,2714.17 1148.44,2713.54C1257.39,2705.51 1312.59,2391.1 1321.44,2335.99L1322.42,2336.01C1320.51,2391.89 1310.05,2713.57 1322.71,2713.54C1408.47,2713.35 1488.16,2407.23 1504.51,2340.52L1507.07,2340.58C1504.62,2406.71 1494.22,2706.59 1507.56,2707.55C1586.94,2713.23 1656.26,2419.04 1672.49,2344.68L1675.49,2344.75C1673.01,2419.28 1663.95,2713.84 1676.07,2713.54C1773.44,2711.16 1834.58,2429.61 1850.08,2349.08L1853.99,2349.17L1853.99,2713.54L1971.77,2278.2L1853.99,1841.38L1853.99,2204.66L1849.86,2204.68C1833.99,2122.64 1772.97,1843.75 1676.07,1841.38C1664.2,1841.1 1672.65,2123.98 1675.33,2205.44L1671.44,2205.46C1653.44,2124.08 1585.34,1841.81 1507.56,1847.38C1494.71,1848.3 1503.89,2126.68 1506.78,2206.17L1502.47,2206.19C1482.35,2125.8 1405.34,1841.57 1322.71,1841.38C1310.77,1841.36 1319.4,2127.64 1322.02,2206.97L1319.45,2206.98C1306.07,2128.72 1251.14,1848.96 1148.44,1841.38C1140.59,1840.81 1145.17,2129.41 1146.55,2207.74L1138.91,2207.77L990.196,1847.38Z" style="fill:rgb(12,87,208);"/>
                        </g>
                        <g transform="matrix(1,0,0,-1,0,4554.92)">
                            <path d="M990.196,2039.46L990.196,2501.66L1145.32,2331.62L1146.84,2331.66C1146.08,2372.05 1147.19,2722.02 1148.44,2713.54C1203.61,2337.76 1312.59,2391.1 1321.44,2335.99L1322.42,2336.01C1320.51,2391.89 1321.83,2726.16 1322.71,2713.54C1356.28,2230.17 1488.16,2407.23 1504.51,2340.52L1507.07,2340.58C1504.62,2406.71 1500.62,2718.97 1507.56,2707.55C1712.51,2370.4 1656.26,2419.04 1672.49,2344.68L1675.49,2344.75C1673.01,2419.28 1673.46,2725.38 1676.07,2713.54C1750.5,2375.46 1797.77,2412.7 1850.08,2349.08L1853.99,2349.17L1853.99,2526.62L1971.77,2278.2L1853.99,2042.75C1853.99,2042.75 1854.67,2177.68 1853.99,2204.66C1853.95,2206.04 1849.86,2204.68 1849.86,2204.68C1833.99,2122.64 1759.5,2221.99 1676.07,1841.38C1673.53,1829.78 1672.65,2123.98 1675.33,2205.44L1671.44,2205.46C1653.44,2124.08 1659.16,2098.4 1507.56,1847.38C1500.9,1836.35 1503.89,2126.68 1506.78,2206.17L1502.47,2206.19C1482.35,2125.8 1354.04,2315.97 1322.71,1841.38C1321.92,1829.47 1319.4,2127.64 1322.02,2206.97L1319.45,2206.98C1269.98,2108.35 1222.27,2229.84 1148.44,1841.38C1146.97,1833.65 1145.17,2129.41 1146.55,2207.74L1138.91,2207.77L990.196,2039.46Z" style="fill:rgb(2,210,109);"/>
                        </g>
                        <g transform="matrix(1,1.0398e-16,-1.0398e-16,-0.150942,3.3988e-13,2621.23)">
                            <path d="M990.196,2039.46L990.196,2501.66L1145.32,2331.62L1146.84,2331.66C1146.08,2372.05 1147.19,2722.02 1148.44,2713.54C1203.61,2337.76 1312.59,2391.1 1321.44,2335.99L1322.42,2336.01C1320.51,2391.89 1321.83,2726.16 1322.71,2713.54C1356.28,2230.17 1488.16,2407.23 1504.51,2340.52L1507.07,2340.58C1504.62,2406.71 1500.62,2718.97 1507.56,2707.55C1712.51,2370.4 1656.26,2419.04 1672.49,2344.68L1675.49,2344.75C1673.01,2419.28 1673.46,2725.38 1676.07,2713.54C1750.5,2375.46 1797.77,2412.7 1850.08,2349.08L1853.99,2349.17L1853.99,2526.62L1971.77,2278.2L1853.99,2042.75C1853.99,2042.75 1854.67,2177.68 1853.99,2204.66C1853.95,2206.04 1849.86,2204.68 1849.86,2204.68C1833.99,2122.64 1759.5,2221.99 1676.07,1841.38C1673.53,1829.78 1672.65,2123.98 1675.33,2205.44L1671.44,2205.46C1653.44,2124.08 1659.16,2098.4 1507.56,1847.38C1500.9,1836.35 1503.89,2126.68 1506.78,2206.17L1502.47,2206.19C1482.35,2125.8 1354.04,2315.97 1322.71,1841.38C1321.92,1829.47 1319.4,2127.64 1322.02,2206.97L1319.45,2206.98C1269.98,2108.35 1222.27,2229.84 1148.44,1841.38C1146.97,1833.65 1145.17,2129.41 1146.55,2207.74L1138.91,2207.77L990.196,2039.46Z" style="fill:white;"/>
                        </g>
                    </g>
                </g>
                <path d="M901.257,1650L1022.83,2024.17L1416.26,2024.17L1097.97,2255.42L1219.55,2629.6L901.257,2398.35L582.967,2629.6L704.543,2255.42L386.252,2024.17L779.681,2024.17L901.257,1650Z" style="fill:none;stroke:black;stroke-width:25px;"/>
            </g>
            <g transform="matrix(0.840685,0,0,0.840685,3324.63,-136.462)">
                <g transform="matrix(1,0,0,1.05674,-301.75,-84.6169)">
                    <path d="M577.655,1912.99C595.467,1902.7 617.859,1902.7 635.672,1912.99C689.379,1944 803.549,2009.91 855.459,2039.88C872.035,2049.45 882.148,2066.5 882.148,2084.88L882.148,2343.81C882.148,2362.18 872.035,2379.23 855.459,2388.8C803.549,2418.77 689.379,2484.69 635.672,2515.7C617.859,2525.98 595.467,2525.98 577.655,2515.7C523.947,2484.69 409.778,2418.77 357.867,2388.8C341.291,2379.23 331.179,2362.18 331.179,2343.81L331.179,2084.88C331.179,2066.5 341.291,2049.45 357.867,2039.88C409.778,2009.91 523.947,1944 577.655,1912.99Z"/>
                </g>
                <g transform="matrix(1,0,0,1.3536,-271.357,-862.035)">
                    <path d="M354.861,2185.11L573.668,2086.65L787.455,2182.85L687.684,2228.23C659.742,2205 619.002,2190.35 573.668,2190.35C527.03,2190.35 485.254,2205.86 457.273,2230.26L354.861,2185.11ZM429.665,2265.88C424.165,2277.51 421.175,2290.01 421.175,2303.01C421.175,2358.85 476.291,2405.26 548.492,2414.14L548.492,2508.04L333.246,2411.19L333.246,2223.37L429.665,2265.88ZM814.09,2218.93L814.09,2411.19L604.049,2505.7L604.049,2413.43C673.677,2403.01 726.16,2357.5 726.16,2303.01C726.16,2289.06 722.719,2275.69 716.43,2263.36L814.09,2218.93Z" style="fill:white;"/>
                </g>
                <g transform="matrix(1,0,0,1,-271.357,0.404666)">
                    <circle cx="576.271" cy="2259.8" r="74.163" style="fill:white;"/>
                </g>
            </g>
        </g>
    </g>
</svg>
